<svg width="545" height="336" viewBox="0 0 545 336" fill="none" xmlns="http://www.w3.org/2000/svg">
<g clip-path="url(#clip0_2230_78)">
<path d="M280.544 336C426.599 336 545 319.375 545 298.866C545 278.358 426.599 261.732 280.544 261.732C134.488 261.732 16.0873 278.358 16.0873 298.866C16.0873 319.375 134.488 336 280.544 336Z" fill="#EBEBEB"/>
<path d="M54.8633 295.1L270.775 296.032C323.252 254.88 328.675 193.912 291.238 156.954C268.579 134.602 239.809 139.109 212.408 135.557C212.385 135.557 212.355 135.541 212.332 135.541C202.792 134.296 193.429 132.081 184.54 127.398C156.328 112.532 140.425 77.4763 116.696 47.9815C113.735 44.2842 110.645 40.6861 107.401 37.2256C87.8869 16.4166 49.0419 15.7367 28.7244 44.9946C-22.9108 119.331 0.734324 229.984 54.8633 295.1Z" fill="#DBDBDB"/>
<path d="M50.067 124.999C55.7201 213.461 158.019 246.477 221.917 219.985C277.468 196.937 259.293 144.349 212.4 135.549C212.377 135.549 212.347 135.534 212.324 135.534C202.785 134.289 193.422 132.073 184.533 127.39C156.321 112.525 140.417 77.4687 116.688 47.974C81.3311 29.6324 45.9209 60.2195 50.0746 124.992L50.067 124.999Z" fill="#C8C7C7"/>
<path d="M124.973 4.27036C140.371 18.8458 150.951 56.7513 143.148 80.6847C133.854 109.194 108.388 123.739 87.5045 116.994C68.541 110.867 60.1952 91.7233 67.1564 77.4915C73.8805 63.7487 86.7166 58.7069 89.1033 46.4843C90.2431 40.6327 88.2771 30.9157 88.7591 22.0848C89.6388 6.02737 112.986 -7.07376 124.973 4.27036Z" fill="#010101"/>
<path d="M64.6091 80.7841C65.397 77.7285 66.751 74.9249 68.3498 72.3581C69.9639 69.7914 71.8457 67.4538 73.9647 65.3989C76.1066 63.3287 78.2026 61.1974 80.2297 58.9667C82.2416 56.7208 84.1693 54.2992 85.661 51.5415C86.3954 50.1588 87.0991 48.7685 87.6117 47.1948C88.1165 45.6441 88.346 44.0016 88.4531 42.3745C88.6597 39.1126 88.369 35.8965 88.2313 32.711C88.0859 29.5331 88.1318 26.3476 88.7056 23.2614C89.2334 20.1675 90.8781 17.3028 92.3927 14.6292C90.6792 17.1424 88.9044 19.9995 88.1854 23.1162C87.474 26.2406 87.3439 29.5026 87.3898 32.7186C87.4128 35.9347 87.6728 39.1432 87.4434 42.2599C87.321 43.8107 87.0838 45.3461 86.6095 46.7747C86.1429 48.1803 85.4239 49.5477 84.7048 50.8692C81.8132 56.1937 77.4529 60.3341 73.368 64.6808C71.2796 66.8656 69.4284 69.333 67.8908 72.0144C66.4298 74.7416 65.1599 77.6521 64.6168 80.7918L64.6091 80.7841Z" fill="#010101"/>
<path d="M236.336 334.976C233.162 333.815 161.477 276.606 160.13 272.695C159.61 271.213 167.344 260.304 177.067 247.386C179.163 244.598 181.35 241.725 183.584 238.83C198.073 219.984 213.884 200.321 213.884 200.321L261.947 238.456L230.324 275.918L223.385 284.146C223.385 284.146 241.018 318.308 242.043 322.754C243.053 327.185 239.511 336.145 236.336 334.984V334.976Z" fill="#D3756A"/>
<path d="M236.336 334.976C233.161 333.815 161.476 276.606 160.13 272.694C159.503 270.892 171.054 255.155 183.584 238.823L230.323 275.903L223.385 284.13C223.385 284.13 241.018 318.293 242.043 322.738C243.052 327.169 239.511 336.13 236.336 334.969V334.976Z" fill="white"/>
<path d="M236.336 334.976C233.162 333.815 161.477 276.606 160.13 272.694C159.61 271.212 167.344 260.304 177.067 247.386L223.385 284.138C223.385 284.138 241.018 318.3 242.043 322.746C243.053 327.177 239.511 336.138 236.336 334.976Z" fill="#BCB4FF"/>
<path d="M237.598 331.294C225.818 321.409 177.373 282.648 164.972 273.771C164.873 273.703 164.819 273.771 164.911 273.848C176.37 283.901 225.137 322.265 237.438 331.493C237.698 331.684 237.843 331.508 237.591 331.294H237.598Z" fill="#010101"/>
<path d="M239.488 316.489C236.734 314.098 232.863 313.228 229.956 313.686C227.157 314.121 224.051 315.397 222.146 317.949C222.093 318.025 222.223 318.132 222.292 318.063C226.736 313.915 234.317 313.205 239.373 316.642C239.473 316.711 239.587 316.574 239.496 316.489H239.488Z" fill="#010101"/>
<path d="M227.088 289.05C222.33 285.146 215.399 282.389 209.264 283.932C209.027 283.993 209.111 284.329 209.318 284.367C215.46 285.597 220.922 287.232 226.698 289.707C227.103 289.883 227.432 289.333 227.088 289.05Z" fill="#010101"/>
<path d="M229.643 293.458C224.885 289.554 217.954 286.796 211.819 288.339C211.582 288.4 211.674 288.737 211.872 288.775C218.007 290.005 223.477 291.639 229.252 294.115C229.658 294.29 229.987 293.74 229.643 293.458Z" fill="#010101"/>
<path d="M232.198 297.873C227.44 293.969 220.509 291.212 214.374 292.755C214.137 292.816 214.229 293.152 214.428 293.19C220.563 294.42 226.032 296.055 231.808 298.53C232.213 298.706 232.542 298.156 232.198 297.873Z" fill="#010101"/>
<path d="M234.76 302.281C230.002 298.377 223.072 295.619 216.937 297.163C216.7 297.224 216.784 297.56 216.99 297.598C223.125 298.828 228.595 300.463 234.37 302.938C234.776 303.113 235.105 302.563 234.76 302.281Z" fill="#010101"/>
<path d="M177.158 264.818C171.75 260.525 165.064 268.913 170.48 273.214C175.889 277.507 182.574 269.119 177.158 264.818Z" fill="white"/>
<path d="M242.54 280.387C241.722 276.43 237.078 275.949 233.896 276.842C228.755 278.294 223.278 281.708 219.698 285.635C219.614 285.734 219.652 285.834 219.737 285.895C219.561 286.323 219.737 286.934 220.295 286.972C225.611 287.339 231.249 288.393 236.52 287.117C239.595 286.376 243.313 284.13 242.54 280.387ZM228.472 285.879C225.856 285.765 223.255 285.52 220.632 285.497C223.408 283.786 226.093 281.968 229.038 280.547C230.446 279.867 231.899 279.195 233.391 278.706C235.709 277.95 243.642 277.706 239.939 283.313C237.897 286.407 231.601 286.017 228.48 285.879H228.472Z" fill="#010101"/>
<path d="M206.327 277.881C209.998 281.869 215.269 284.123 219.897 286.766C220.379 287.041 220.861 286.628 220.96 286.178C221.06 286.178 221.159 286.116 221.136 285.987C220.341 280.738 217.702 274.856 214.229 270.792C212.087 268.287 207.964 266.102 205.072 268.936C202.341 271.617 204.185 275.552 206.327 277.874V277.881ZM205.615 272.832C205.661 266.117 212.117 270.724 213.617 272.633C214.581 273.863 215.422 275.231 216.21 276.575C217.862 279.394 219.086 282.396 220.44 285.36C218.245 283.924 215.95 282.679 213.708 281.327C211.039 279.707 205.585 276.537 205.615 272.832Z" fill="#010101"/>
<path d="M310.484 165.128C307.187 190.062 245.654 262.046 238.539 270.304C237.491 271.518 236.918 272.183 236.918 272.183L186.017 233.116L186.606 232.36L231.433 173.745L97.7321 172.958L148.495 133.54C148.495 133.54 152.611 135.916 161.178 134.663C190.683 130.347 257.212 120.798 272.902 121.432C293.143 122.265 313.514 142.241 310.492 165.12L310.484 165.128Z" fill="#FFFEEC"/>
<path d="M247.528 151.966C245.791 153.723 244.399 155.923 242.907 157.886C241.324 159.964 239.71 162.019 238.134 164.089C238.119 164.112 238.103 164.127 238.088 164.15C238.371 163.539 238.646 162.928 238.937 162.332C239.939 160.269 240.735 158.13 241.913 156.16C241.982 156.037 241.798 155.923 241.729 156.045C240.513 158.008 239.105 159.872 238.065 161.935C237.575 162.905 237.116 163.89 236.68 164.883C236.443 165.433 236.198 165.976 235.992 166.533C235.893 166.786 235.77 167.061 235.701 167.336C234.99 168.298 234.294 169.268 233.613 170.254C232.106 172.439 230.775 174.746 229.245 176.907C229.161 177.022 229.344 177.129 229.429 177.022C230.974 174.982 232.71 173.088 234.278 171.063C235.877 169.009 237.399 166.893 238.891 164.761C240.352 162.683 241.783 160.583 243.244 158.497C244.713 156.404 246.457 154.334 247.65 152.065C247.688 151.989 247.589 151.897 247.52 151.966H247.528Z" fill="#010101"/>
<path d="M124.797 86.857C132.033 100.714 159.74 145.06 175.246 146.855C185.42 148.031 225.298 140.193 231.295 129.995C233.911 125.557 225.956 97.1545 220.7 98.8352C215.445 100.508 183.584 107.941 179.507 107.177C175.453 106.421 142.353 75.1767 130.419 67.782C109.842 55.0323 120.895 79.3935 124.789 86.857H124.797Z" fill="#D3756A"/>
<path d="M208.308 97.9491L213.433 141.286C213.433 141.286 182.1 150.231 167.941 146.305C150.744 141.538 122.877 91.0051 118.968 82.6556C112.557 68.9509 113.559 60.3493 121.538 61.9458C124.636 62.5417 128.797 64.6883 133.976 68.7065C139.4 72.8927 170.748 100.279 180.41 105.222C185.81 107.987 208.3 97.9491 208.3 97.9491H208.308Z" fill="#37474F"/>
<path d="M208.301 97.9495L213.434 141.294C213.434 141.294 208.24 142.776 201.118 144.273C190.752 146.435 176.333 148.635 167.941 146.305C150.752 141.546 122.862 91.0132 118.968 82.6636C114.325 72.748 113.575 65.4985 116.543 62.8553C117.66 61.8393 119.335 61.5108 121.538 61.9463C124.629 62.5497 128.798 64.6963 133.984 68.7069C139.4 72.8855 170.741 100.279 180.41 105.222C185.818 107.995 208.301 97.9495 208.301 97.9495Z" fill="#B8B1D8"/>
<path d="M205.447 141.118C204.498 134.739 201.561 108.484 201.316 102.77C201.301 102.372 201.546 102.265 201.614 102.678C204.919 121.73 205.087 134.77 205.699 141.08C205.715 141.24 205.47 141.286 205.447 141.126V141.118Z" fill="#010101"/>
<path d="M118.968 82.6556C122.869 91.0052 150.752 141.546 167.941 146.305C172.179 147.481 177.969 147.497 184.005 146.962L120.49 61.7931C118.807 61.6403 117.484 62.007 116.558 62.8473C113.582 65.4905 114.34 72.7477 118.975 82.6556H118.968Z" fill="#010101"/>
<path d="M71.2413 167.679L152.542 146.939L144.525 117.627C144.525 117.627 150.958 108.43 148.22 99.6678C145.78 91.8529 127.244 68.607 123.496 65.5132C117.07 60.1963 105.588 58.424 99.3003 65.8264C73.3832 96.3447 71.2413 167.687 71.2413 167.687V167.679Z" fill="#B8B1D8"/>
<path opacity="0.1" d="M119.029 62.7478L97.4338 68.1487C98.0457 67.3542 98.6654 66.5827 99.3003 65.8264C99.4456 65.6507 99.5986 65.4903 99.744 65.3298L115.235 61.4568C116.543 61.77 117.812 62.1978 119.029 62.7554V62.7478ZM124.123 66.0785L93.6089 73.7329C93.4712 73.9621 93.3259 74.1912 93.2035 74.4204L124.598 66.5521C124.437 66.3764 124.276 66.216 124.123 66.0785ZM128.063 70.4251L90.1666 79.913C89.7459 80.7533 89.3251 81.6165 88.9197 82.4797L129.624 72.2891C129.08 71.6245 128.553 71.0057 128.055 70.4251H128.063ZM132.722 76.1239L86.6248 87.6743C86.533 87.8882 86.4489 88.1098 86.3571 88.3237L133.119 76.6205C132.982 76.4448 132.852 76.2844 132.729 76.1239H132.722ZM136.172 80.5928L84.3528 93.5794C84.0545 94.4044 83.7715 95.2294 83.5037 96.0468L137.594 82.495C137.135 81.8457 136.646 81.2116 136.172 80.5928ZM140.425 86.3909L81.8897 101.058C81.8055 101.264 81.752 101.478 81.6984 101.677L140.761 86.8875C140.654 86.7271 140.532 86.5666 140.425 86.3909ZM143.508 90.9439L80.2297 106.803C80.0231 107.597 79.809 108.407 79.5948 109.201L144.755 92.8842C144.364 92.2654 143.959 91.6161 143.508 90.9439ZM147.049 96.933L78.4091 114.129C78.3555 114.335 78.3173 114.549 78.2637 114.747L147.31 97.4448C147.241 97.2844 147.164 97.1087 147.049 96.933ZM148.709 101.83L77.1622 119.751C77.0015 120.546 76.8409 121.34 76.6726 122.127L148.885 104.045C148.885 103.319 148.832 102.571 148.709 101.83ZM75.7699 126.978C75.7317 127.184 75.6858 127.398 75.6628 127.596L148.197 109.431C148.25 109.217 148.304 109.01 148.342 108.797L75.7699 126.978ZM74.8214 132.539C74.699 133.333 74.5766 134.12 74.4695 134.884L144.747 117.268C145.045 116.81 145.596 115.893 146.223 114.648L74.8214 132.531V132.539ZM145.627 121.676L73.781 139.682C73.7504 139.888 73.7275 140.086 73.6969 140.293L145.772 122.234L145.627 121.684V121.676ZM146.996 126.649L73.0926 145.167C73.0008 145.961 72.9013 146.733 72.8248 147.489L147.562 128.758L146.996 126.649ZM148.748 133.089L72.3199 152.225C72.3046 152.431 72.2893 152.63 72.2664 152.836L148.893 133.647L148.748 133.097V133.089ZM150.117 138.07L71.8533 157.664C71.7845 158.474 71.7309 159.245 71.6774 159.956L150.683 140.171L150.117 138.062V138.07ZM151.876 144.494L71.3943 164.662C71.3637 164.868 71.3637 165.066 71.3561 165.257L152.029 145.052L151.884 144.502L151.876 144.494Z" fill="#010101"/>
<path d="M134.343 77.5218C136.378 80.058 138.597 82.4872 140.708 84.9776C139.767 83.1518 138.834 81.3261 137.824 79.5309C137.801 79.4927 137.855 79.4545 137.885 79.4927C139.392 81.6469 140.754 83.8623 141.771 86.2457C143.332 88.1402 144.816 90.0958 146.101 92.1813C147.638 94.6869 148.885 97.3454 149.444 100.21C149.995 103.075 149.78 106.046 149.084 108.888C148.273 112.181 146.912 115.32 145.489 118.414C145.298 118.827 144.693 118.529 144.839 118.124C146.851 112.723 149.092 107.024 148.212 101.241C147.34 95.5273 143.921 90.5313 140.585 85.8485C138.581 83.0296 136.539 80.1955 134.16 77.6364C134.06 77.5294 134.259 77.3996 134.351 77.5065L134.343 77.5218Z" fill="#010101"/>
<path d="M132.53 113.77C128.851 115.168 125.194 116.703 121.752 118.636C120.039 119.598 118.386 120.63 116.749 121.707C115.931 122.242 115.105 122.746 114.263 123.25C113.406 123.769 112.473 124.281 111.509 124.571C111.425 124.594 111.463 124.724 111.547 124.709C112.504 124.48 113.414 124.258 114.332 123.907C115.204 123.571 116.045 123.143 116.864 122.692C118.608 121.737 120.306 120.698 122.043 119.721C125.539 117.75 129.035 115.786 132.668 114.068C132.836 113.991 132.714 113.701 132.538 113.77H132.53Z" fill="#010101"/>
<path d="M142.819 114.618C139.622 115.137 136.401 115.809 133.28 116.688C131.712 117.131 130.182 117.658 128.652 118.223C127.925 118.498 127.199 118.781 126.48 119.079C125.684 119.4 124.934 119.835 124.139 120.148C124.055 120.179 124.093 120.316 124.177 120.286C124.934 120.011 125.745 119.866 126.518 119.637C127.298 119.407 128.071 119.171 128.851 118.941C130.412 118.483 131.972 118.04 133.525 117.566C136.638 116.619 139.744 115.71 142.888 114.87C143.056 114.824 142.98 114.587 142.812 114.61L142.819 114.618Z" fill="#010101"/>
<path d="M107.562 65.6047C108.051 67.0638 116.084 76.0856 122.884 75.1307C125.095 74.8175 123.917 62.6789 123.917 62.6789L124.032 61.7622L125.676 48.9361L110.017 40.8386L107.768 39.7844C107.768 39.7844 107.554 43.3213 107.325 47.7291C107.309 47.9354 107.302 48.1416 107.294 48.3555C107.271 48.6076 107.256 48.8368 107.248 49.0736C107.202 49.7306 107.164 50.4028 107.141 51.0751C107.118 51.5869 107.095 52.0834 107.095 52.6182C107.08 53.1529 107.072 53.68 107.057 54.2148C107.003 59.524 107.386 64.9783 107.585 65.6047H107.562Z" fill="#D3756A"/>
<path d="M107.317 47.7294C111.853 57.393 120.23 60.7236 124.032 61.7549L125.676 48.9288L110.017 40.8313L107.768 39.7771C107.768 39.7771 107.554 43.314 107.325 47.7218L107.317 47.7294Z" fill="#010101"/>
<path d="M141.741 26.0113C147.539 47.9509 135.039 53.9018 130.297 55.1394C125.998 56.27 111.203 59.5701 103.163 38.3485C95.1236 17.127 103.5 7.49405 113.207 4.39255C122.907 1.29106 135.942 4.07171 141.741 26.0113Z" fill="#D3756A"/>
<path d="M137.824 25.0105C137.288 25.0487 136.791 24.9952 136.256 24.9799C135.651 24.9647 135.17 25.0105 134.665 24.6438C134.389 24.4452 134.313 23.9563 134.481 23.6736C134.864 23.009 135.606 22.8486 136.332 22.8486C137.12 22.841 137.732 23.0319 138.344 23.5285C138.941 24.0021 138.535 24.9647 137.824 25.0181V25.0105Z" fill="#010101"/>
<path d="M122.265 27.226C122.777 27.0656 123.221 26.8287 123.71 26.6225C124.261 26.3857 124.728 26.2482 125.072 25.7211C125.256 25.4384 125.141 24.9572 124.888 24.7509C124.284 24.2773 123.534 24.3995 122.861 24.6592C122.127 24.9419 121.63 25.3467 121.24 26.0266C120.857 26.6836 121.591 27.4322 122.265 27.2183V27.226Z" fill="#010101"/>
<path d="M126.372 30.8849C126.349 30.8315 126.273 30.9842 126.288 31.0454C126.663 32.5426 126.839 34.3302 125.577 35.1247C125.539 35.1476 125.562 35.224 125.607 35.2087C127.229 34.6128 126.969 32.2523 126.38 30.8926L126.372 30.8849Z" fill="#010101"/>
<path d="M124.682 29.6016C122.211 29.9377 123.068 34.8497 125.355 34.5365C127.612 34.2309 126.755 29.3189 124.682 29.6016Z" fill="#010101"/>
<path d="M123.764 30.0295C123.381 30.3809 123.045 30.9462 122.54 31.0913C121.951 31.2518 121.408 30.8163 120.934 30.3962C120.888 30.3503 120.849 30.3962 120.857 30.4649C121.01 31.4122 121.538 32.3136 122.571 32.2754C123.511 32.2448 124.032 31.2976 124.101 30.3045C124.116 30.1212 123.917 29.892 123.764 30.0295Z" fill="#010101"/>
<path d="M135.254 28.7689C135.254 28.7078 135.384 28.8224 135.391 28.8835C135.598 30.4189 136.088 32.1377 137.556 32.4128C137.602 32.4204 137.61 32.4968 137.556 32.4968C135.835 32.5426 135.2 30.2509 135.254 28.7689Z" fill="#010101"/>
<path d="M136.347 26.9509C138.772 26.355 139.782 31.2441 137.541 31.7941C135.33 32.3365 134.32 27.4474 136.347 26.9509Z" fill="#010101"/>
<path d="M137.434 27.0577C137.878 27.2334 138.352 27.6307 138.818 27.5619C139.362 27.4855 139.645 26.8744 139.882 26.3015C139.905 26.2403 139.951 26.2709 139.966 26.3396C140.188 27.2716 140.081 28.3029 139.216 28.6696C138.428 29.0057 137.663 28.3258 137.25 27.4397C137.174 27.2793 137.25 26.989 137.426 27.0577H137.434Z" fill="#010101"/>
<path d="M129.103 43.8335C129.516 44.1467 129.945 44.5898 130.511 44.5668C131.054 44.5439 131.643 44.2231 132.11 43.971C132.156 43.9481 132.209 43.9939 132.186 44.0397C131.865 44.6814 131.069 45.1551 130.343 45.1245C129.631 45.0939 129.21 44.5363 128.966 43.9252C128.927 43.8411 129.042 43.7876 129.103 43.8335Z" fill="#010101"/>
<path d="M134.435 37.1568C134.435 37.1568 135.17 39.3645 135.376 40.434C135.391 40.5333 135.147 40.6326 134.787 40.7166C134.772 40.7243 134.764 40.7319 134.749 40.7243C132.913 41.3736 130.886 41.0757 129.448 39.7464C129.356 39.6548 129.471 39.5173 129.578 39.5707C131.184 40.3423 132.798 40.3194 134.481 40.0367C134.504 39.7235 133.089 36.2936 133.257 36.2477C133.831 36.0873 135.063 36.2706 135.797 36.347C134.397 31.7024 132.255 27.3099 130.932 22.6653C130.886 22.4973 131.123 22.4056 131.199 22.5431C133.762 26.9814 135.499 32.2983 137.067 37.0575C137.266 37.6533 134.91 37.2561 134.451 37.1568H134.435Z" fill="#010101"/>
<path d="M103.385 39.5707C108.128 36.6602 107.768 31.4045 107.768 31.4045C113.689 28.0586 116.52 22.8563 116.818 22.3292C116.719 22.8105 115.992 26.3016 115.571 28.0662C129.646 23.8036 132.875 12.3296 132.875 12.3296C138.046 16.4623 139.308 19.327 140.149 20.7403C140.149 20.7403 139.277 11.9247 134.099 6.53146C127.757 -0.0763983 120.337 2.13131 120.337 2.13131C120.337 2.13131 108.809 0.0458275 101.174 10.4121C92.9587 21.5958 103.393 39.586 103.393 39.586L103.385 39.5707Z" fill="#010101"/>
<path d="M126.227 24.4834C124.078 26.0189 121.63 27.1724 119.151 27.9975C119.128 27.9975 119.121 27.9745 119.143 27.9669C123.068 26.378 126.464 23.857 128.989 20.4347C130.052 18.9909 130.939 17.4325 131.612 15.7672C132.316 14.0255 132.966 11.9782 132.921 10.0837C132.921 9.93852 133.142 9.93088 133.142 10.0837C133.196 12.0851 133.227 13.9262 132.63 15.8665C132.064 17.7075 131.153 19.4569 129.96 20.9694C128.897 22.3216 127.627 23.4904 126.227 24.4911" fill="#010101"/>
<path d="M107.103 39.1201C107.103 39.1201 101.006 32.9858 98.1375 35.2776C95.2689 37.5693 100.7 47.0495 104.663 47.7829C108.625 48.5238 109.383 44.8723 109.383 44.8723L107.103 39.1201Z" fill="#D3756A"/>
<path d="M99.7593 37.9513C99.6981 37.9513 99.6981 38.0429 99.7593 38.0506C102.551 38.6541 104.349 40.8312 105.741 43.1765C104.8 42.3438 103.645 42 102.513 43.1459C102.452 43.207 102.536 43.2987 102.605 43.2758C103.638 42.8632 104.441 42.9167 105.305 43.6424C105.925 44.1619 106.407 44.8647 106.889 45.4988C107.049 45.7126 107.447 45.514 107.317 45.2619C107.309 45.2467 107.294 45.2237 107.287 45.2085C106.774 41.8702 103.378 37.6686 99.7516 37.9513H99.7593Z" fill="#010101"/>
<path d="M89.8912 77.0789C77.7588 96.1156 63.8059 126.496 63.4234 147.978C63.2398 158.466 81.4001 168 88.017 164.822C103.569 157.336 125.217 140.14 133.731 128.796C136.738 124.793 104.556 97.8726 102.2 102.678C99.897 107.368 98.3747 110.301 96.0033 112.15C94.8482 113.052 101.687 98.9115 105.129 79.1338C109.826 52.1141 94.2898 70.1807 89.8912 77.0789Z" fill="#D3756A"/>
<path d="M127.65 56.5295C127.65 56.5295 122.609 50.296 127.137 47.2098C131.674 44.1236 135.644 51.0828 135.644 51.0828L127.65 56.5295Z" fill="#F8C2C0"/>
<path d="M135.466 50.8291L127.473 56.2761L159.269 102.806L167.262 97.3585L135.466 50.8291Z" fill="#B8B1D8"/>
<path opacity="0.2" d="M135.466 50.8291L127.473 56.2761L159.269 102.806L167.262 97.3585L135.466 50.8291Z" fill="#010101"/>
<path d="M135.97 50.1272L126.638 56.4871L127.901 58.3359L137.234 51.976L135.97 50.1272Z" fill="#EBEBEB"/>
<path d="M137.368 52.1623L128.035 58.5222L129.298 60.371L138.631 54.0111L137.368 52.1623Z" fill="#EBEBEB"/>
<path d="M167.268 97.3454L168.186 105.137L168.499 107.704L166.197 106.489L159.266 102.8L159.281 101.089C159.281 101.089 160.834 101.7 160.865 101.707L160.88 99.9961C160.88 99.9961 162.433 100.607 162.464 100.615V98.919C162.464 98.919 164.032 99.5225 164.062 99.5302V97.8343C164.062 97.8343 165.631 98.4378 165.661 98.4454V96.7495C165.661 96.7495 167.229 97.353 167.26 97.3606L167.268 97.3454Z" fill="white"/>
<path d="M168.186 105.137L168.499 107.704L166.204 106.489L168.186 105.137Z" fill="#EBEBEB"/>
<path d="M150.675 64.0235C153.552 67.9882 143.156 74.2294 143.156 74.2294C143.156 74.2294 146.529 73.9926 149.015 76.0933C151.861 78.492 149.337 83.9998 149.337 83.9998C149.337 83.9998 152.802 84.4658 155.204 86.9486C157.69 89.5229 155.938 95.4433 155.938 95.4433C155.938 95.4433 158.929 97.651 159.465 101.28C160.375 107.483 152.588 113.189 148.472 117.673C144.058 122.478 135.399 127.062 132.041 130.553L101.182 105.16C101.182 105.16 111.058 80.1115 119.725 73.3662C124.537 69.623 146.285 57.9656 150.675 64.0235Z" fill="#D3756A"/>
<path d="M142.995 74.1759C136.707 76.3836 130.955 80.0963 125.447 83.7325C125.324 83.8165 125.447 84.0075 125.577 83.9235C131.016 80.2414 137.564 77.9191 143.133 74.4586C143.286 74.3593 143.163 74.1148 142.995 74.1759Z" fill="#010101"/>
<path d="M148.908 83.702C147.501 84.2443 146.277 85.2527 145.068 86.1388C143.768 87.0937 142.49 88.0715 141.228 89.0646C138.696 91.0585 136.21 93.1134 133.785 95.2294C133.678 95.3211 133.793 95.5121 133.915 95.4204C136.439 93.4342 139.002 91.4939 141.611 89.6223C142.919 88.6827 144.234 87.7583 145.55 86.8416C146.782 85.9861 148.143 85.1916 149.161 84.0763C149.314 83.9082 149.13 83.6256 148.916 83.7096L148.908 83.702Z" fill="#010101"/>
<path d="M155.831 95.5198C154.592 95.9399 153.49 97.0705 152.496 97.8955C151.364 98.8275 150.224 99.7519 149.077 100.676C146.789 102.517 144.494 104.351 142.138 106.115C142.024 106.199 142.146 106.39 142.268 106.306C144.67 104.534 147.095 102.792 149.474 100.997C150.645 100.119 151.815 99.2248 152.97 98.331C153.957 97.5671 155.28 96.7344 155.923 95.642C155.961 95.5809 155.885 95.5121 155.824 95.5274L155.831 95.5198Z" fill="#010101"/>
<path d="M118.019 74.8786C119.388 73.2286 121.683 70.6465 127.237 68.7826C127.39 68.7291 127.39 68.8208 127.245 68.8972C126.434 69.325 122.18 71.3188 118.08 74.9321C118.042 74.9626 117.988 74.9168 118.027 74.8786H118.019Z" fill="#010101"/>
<path d="M135.261 134.449L101.702 101.455L96.577 110.722C96.577 110.722 104.227 90.0959 106.177 78.8281C108.12 67.5604 107.791 54.3752 93.5018 71.2425C79.503 87.7659 60.7383 135.427 61.6946 147.771C62.6508 160.116 78.3938 167.603 86.3112 166.182C94.2286 164.761 135.261 134.449 135.261 134.449Z" fill="#B8B1D8"/>
<path d="M126.495 138.009C121.806 133.57 103.293 114.702 99.568 110.355C99.3079 110.057 99.438 109.82 99.744 110.095C114.11 123.059 122.288 133.227 126.663 137.818C126.77 137.932 126.61 138.123 126.495 138.009Z" fill="#010101"/>
<path d="M72.58 144.15C74.3929 141.018 76.4966 138.016 78.5085 134.984C80.5203 131.951 82.5398 128.91 84.6664 125.939C86.8083 122.96 89.0803 120.064 91.3369 117.161C92.4691 115.71 94.6645 112.868 95.8043 111.417C96.9212 109.988 97.0512 110.324 95.9803 111.89C94.9476 113.395 92.8592 116.291 91.8342 117.795C89.8223 120.767 87.8487 123.762 85.7603 126.687C83.672 129.621 81.4995 132.516 79.3576 135.419C77.1774 138.368 75.1044 141.4 72.7942 144.265C72.7024 144.38 72.4958 144.288 72.5723 144.15H72.58Z" fill="#010101"/>
<path d="M99.3538 100.477C100.524 97.0704 101.924 93.6863 102.827 90.1952C102.865 90.0577 103.087 90.1112 103.041 90.2487C102.368 92.548 101.832 94.8856 101.236 97.2079C101.289 97.1163 101.35 97.0169 101.404 96.9253C101.939 96.0315 102.444 95.1224 102.942 94.2057C103.01 94.0759 103.202 94.1905 103.133 94.3127C102.666 95.2523 102.215 96.1919 101.786 97.1392C101.45 97.8878 101.121 98.6823 100.639 99.3545C100.494 99.8587 100.356 100.363 100.203 100.867C99.1244 104.244 97.8851 107.696 96.3399 110.89C96.2404 111.088 95.9191 110.958 95.9803 110.744C96.9671 107.292 98.1758 103.862 99.3385 100.47L99.3538 100.477Z" fill="#010101"/>
<path d="M101.435 101.272C101.542 101.096 102.375 101.96 102.766 102.41C102.827 102.487 102.743 102.525 102.643 102.448C102.375 102.25 102.069 102.128 101.809 101.906C101.021 103.472 96.6688 110.859 96.3551 111.18C96.2174 111.325 96.0874 111.195 96.1486 110.997C96.4087 110.179 100.471 102.876 101.435 101.264V101.272Z" fill="#010101"/>
<path d="M97.3113 160.437C106.996 153.378 116.864 146.541 126.954 140.079C129.715 138.306 132.331 136.404 135.047 134.556C134.749 134.357 132.018 131.469 131.934 131.362C131.888 131.309 131.957 131.233 132.01 131.278C132.316 131.538 135.804 134.357 136.042 134.678C136.187 134.869 125.921 141.874 121.063 145.304C116.168 148.757 111.119 151.988 106.085 155.22C103.224 157.061 100.333 158.863 97.4184 160.613C97.296 160.682 97.1965 160.513 97.3113 160.429V160.437Z" fill="#010101"/>
<path d="M207.421 145.938L156.795 150.308L174.825 83.4194L225.443 79.0498L207.421 145.938Z" fill="white"/>
<path d="M210.886 145.64L160.26 150.01L178.291 83.1215L228.909 78.752L210.886 145.64Z" fill="#B8B1D8"/>
<path d="M183.669 82.6631C183.454 83.7097 182.781 84.825 181.725 85.4896C181.267 85.7875 181.083 85.1687 181.534 84.8861C182.2 84.4507 182.651 83.7631 182.858 83.0985C182.888 82.9763 182.926 82.8465 182.942 82.7319C183.034 82.2888 183.034 81.8534 182.911 81.4943C182.85 81.311 182.743 81.1735 182.59 81.0742C182.59 81.0742 182.567 81.0589 182.552 81.0512C182.529 81.036 182.498 81.0436 182.49 81.0283C182.46 81.0283 182.391 81.0283 182.391 81.0283C182.269 81.0131 182.162 81.0283 182.039 81.0894C181.833 81.1658 181.657 81.3263 181.488 81.5096C181.282 81.7617 181.175 81.9527 181.045 82.2277C180.968 82.3499 180.922 82.4874 180.853 82.6173L180.83 82.7089C180.808 82.7548 180.792 82.8006 180.777 82.8464C180.769 82.877 180.746 82.9076 180.754 82.9381L180.035 82.9992C180.15 82.5714 180.356 82.1207 180.609 81.6929C181.052 80.9901 181.687 80.3866 182.445 80.295C183.125 80.2186 183.523 80.6769 183.669 81.227C183.791 81.6624 183.776 82.1742 183.653 82.686L183.669 82.6631Z" fill="#37474F"/>
<path d="M187.631 82.3194C187.417 83.3659 186.744 84.4812 185.688 85.1458C185.229 85.4438 185.045 84.825 185.497 84.5423C186.162 84.1069 186.613 83.4194 186.82 82.7548C186.851 82.6326 186.889 82.5027 186.904 82.3881C186.996 81.945 186.996 81.5096 186.874 81.1506C186.812 80.9672 186.705 80.8297 186.552 80.7304C186.552 80.7304 186.529 80.7151 186.514 80.7075C186.491 80.6922 186.461 80.6999 186.453 80.6846C186.422 80.6846 186.353 80.6846 186.353 80.6846C186.231 80.6693 186.124 80.6846 186.002 80.7457C185.795 80.8221 185.611 80.9825 185.451 81.1658C185.244 81.4179 185.137 81.6089 185.007 81.8839C184.931 82.0062 184.885 82.1437 184.816 82.2735L184.793 82.3652C184.77 82.411 184.755 82.4569 184.739 82.5027C184.732 82.5333 184.709 82.5638 184.716 82.5944L183.997 82.6555C184.112 82.2277 184.319 81.777 184.571 81.3492C185.015 80.6464 185.65 80.0429 186.407 79.9512C187.088 79.8748 187.486 80.3332 187.631 80.8832C187.753 81.3186 187.738 81.8305 187.616 82.3423L187.631 82.3194Z" fill="#37474F"/>
<path d="M191.594 81.9755C191.379 83.0221 190.706 84.1374 189.651 84.802C189.192 85.0999 189.008 84.4811 189.459 84.1985C190.125 83.7631 190.576 83.0755 190.783 82.4033C190.813 82.2887 190.852 82.1512 190.867 82.0366C190.959 81.5935 190.966 81.1581 190.836 80.7991C190.775 80.6157 190.668 80.4782 190.515 80.3789C190.515 80.3789 190.492 80.3636 190.477 80.356C190.454 80.3407 190.423 80.3484 190.415 80.3331C190.385 80.3331 190.316 80.3331 190.316 80.3331C190.194 80.3178 190.087 80.3331 189.964 80.3942C189.758 80.4706 189.574 80.631 189.413 80.8144C189.207 81.0664 189.1 81.2574 188.97 81.5324C188.893 81.6547 188.847 81.7922 188.778 81.922L188.756 82.0137C188.733 82.0595 188.717 82.1054 188.702 82.1512C188.694 82.1818 188.671 82.2123 188.679 82.2429L187.96 82.304C188.075 81.8762 188.281 81.4255 188.534 80.9977C188.977 80.2949 189.612 79.6914 190.37 79.5921C191.05 79.5157 191.448 79.9741 191.594 80.5241C191.716 80.9595 191.701 81.4713 191.578 81.9831L191.594 81.9755Z" fill="#37474F"/>
<path d="M195.556 81.6318C195.342 82.6783 194.669 83.7936 193.613 84.4582C193.154 84.7562 192.97 84.1374 193.422 83.8547C194.087 83.4193 194.539 82.7318 194.745 82.0595C194.776 81.945 194.814 81.8075 194.829 81.6929C194.921 81.2498 194.929 80.8144 194.799 80.4553C194.737 80.272 194.63 80.1345 194.477 80.0352C194.477 80.0352 194.454 80.0199 194.439 80.0123C194.416 79.997 194.386 80.0046 194.378 79.9893C194.347 79.9893 194.278 79.9893 194.278 79.9893C194.156 79.9741 194.049 79.9893 193.927 80.0505C193.72 80.1268 193.544 80.2873 193.376 80.4706C193.169 80.7227 193.062 80.9137 192.932 81.1887C192.856 81.3109 192.81 81.4484 192.741 81.5783L192.718 81.67C192.695 81.7158 192.68 81.7616 192.664 81.8075C192.657 81.838 192.634 81.8686 192.641 81.8991L191.922 81.9602C192.037 81.5324 192.244 81.0817 192.496 80.6539C192.94 79.9511 193.575 79.3477 194.332 79.2483C195.013 79.172 195.411 79.6303 195.556 80.1803C195.678 80.6158 195.663 81.1276 195.541 81.6394L195.556 81.6318Z" fill="#37474F"/>
<path d="M199.511 81.2956C199.297 82.3421 198.623 83.4575 197.568 84.1221C197.109 84.42 196.925 83.8012 197.377 83.5186C198.042 83.0831 198.493 82.3956 198.7 81.7234C198.731 81.6088 198.769 81.4713 198.784 81.3567C198.876 80.9136 198.884 80.4782 198.753 80.1191C198.692 79.9358 198.585 79.7983 198.432 79.699C198.432 79.699 198.409 79.6837 198.394 79.6761C198.371 79.6608 198.34 79.6684 198.333 79.6532C198.302 79.6532 198.233 79.6532 198.233 79.6532C198.111 79.6379 198.004 79.6532 197.881 79.7143C197.683 79.7907 197.499 79.9511 197.331 80.1344C197.124 80.3865 197.017 80.5775 196.887 80.8525C196.81 80.9747 196.765 81.1122 196.696 81.2421L196.673 81.3338C196.65 81.3796 196.635 81.4254 196.619 81.4713C196.612 81.5018 196.589 81.5324 196.596 81.5629L195.877 81.6241C195.992 81.1963 196.198 80.7456 196.451 80.3178C196.895 79.615 197.537 79.0115 198.287 78.9122C198.968 78.8358 199.365 79.2941 199.511 79.8441C199.633 80.2796 199.618 80.7914 199.495 81.3032L199.511 81.2956Z" fill="#37474F"/>
<path d="M203.473 80.952C203.259 81.9986 202.586 83.1139 201.53 83.7785C201.071 84.0764 200.888 83.4576 201.339 83.175C202.005 82.7396 202.456 82.052 202.663 81.3798C202.693 81.2652 202.731 81.1277 202.747 81.0131C202.839 80.57 202.846 80.1346 202.716 79.7756C202.655 79.5922 202.548 79.4547 202.395 79.3554C202.395 79.3554 202.372 79.3401 202.357 79.3325C202.334 79.3172 202.303 79.3249 202.295 79.3096C202.265 79.3096 202.196 79.3096 202.196 79.3096C202.074 79.2943 201.966 79.3096 201.844 79.3707C201.638 79.4471 201.454 79.6075 201.293 79.7908C201.087 80.0429 200.98 80.2339 200.85 80.5089C200.773 80.6312 200.727 80.7687 200.658 80.8985L200.635 80.9902C200.612 81.036 200.597 81.0819 200.582 81.1277C200.574 81.1583 200.551 81.1888 200.559 81.2194L199.84 81.2805C199.955 80.8527 200.161 80.402 200.414 79.9742C200.857 79.2714 201.492 78.6679 202.25 78.5762C202.93 78.4998 203.328 78.9582 203.473 79.5082C203.596 79.9436 203.581 80.4555 203.458 80.9673L203.473 80.952Z" fill="#37474F"/>
<path d="M207.436 80.6081C207.222 81.6546 206.548 82.77 205.493 83.4346C205.034 83.7325 204.85 83.1137 205.302 82.8311C205.967 82.3956 206.418 81.7081 206.625 81.0359C206.656 80.9213 206.694 80.7838 206.709 80.6692C206.801 80.2261 206.801 79.7907 206.679 79.4316C206.617 79.2483 206.51 79.1108 206.357 79.0115C206.357 79.0115 206.334 78.9962 206.319 78.9886C206.296 78.9733 206.265 78.9809 206.258 78.9657C206.227 78.9657 206.158 78.9657 206.158 78.9657C206.036 78.9504 205.929 78.9657 205.806 79.0268C205.6 79.1032 205.416 79.2636 205.256 79.4469C205.049 79.699 204.942 79.89 204.812 80.165C204.735 80.2872 204.69 80.4247 204.621 80.5546L204.598 80.6463C204.575 80.6921 204.56 80.7379 204.544 80.7838C204.537 80.8143 204.514 80.8449 204.521 80.8754L203.802 80.9366C203.917 80.5088 204.124 80.0581 204.376 79.6303C204.82 78.9275 205.462 78.324 206.212 78.2247C206.893 78.1483 207.29 78.6066 207.436 79.1566C207.558 79.5921 207.543 80.1039 207.421 80.6157L207.436 80.6081Z" fill="#37474F"/>
<path d="M211.398 80.2645C211.184 81.3111 210.511 82.4264 209.455 83.091C208.996 83.3889 208.813 82.7701 209.264 82.4875C209.93 82.0521 210.381 81.3645 210.588 80.6923C210.618 80.5777 210.656 80.4402 210.672 80.3256C210.764 79.8825 210.764 79.4471 210.641 79.0881C210.58 78.9047 210.473 78.7672 210.32 78.6679C210.32 78.6679 210.297 78.6526 210.282 78.645C210.259 78.6297 210.228 78.6374 210.22 78.6221C210.19 78.6221 210.121 78.6221 210.121 78.6221C209.999 78.6068 209.891 78.6221 209.769 78.6832C209.563 78.7596 209.387 78.92 209.218 79.1034C209.012 79.3554 208.905 79.5464 208.775 79.8214C208.698 79.9437 208.652 80.0812 208.583 80.211L208.56 80.3027C208.538 80.3485 208.522 80.3944 208.507 80.4402C208.499 80.4708 208.476 80.5013 208.484 80.5319L207.765 80.593C207.88 80.1652 208.086 79.7145 208.339 79.2867C208.782 78.5839 209.417 77.9804 210.175 77.8887C210.855 77.8123 211.253 78.2707 211.398 78.8207C211.521 79.2561 211.506 79.768 211.383 80.2798L211.398 80.2645Z" fill="#37474F"/>
<path d="M215.361 79.9282C215.147 80.9748 214.474 82.0901 213.418 82.7547C212.959 83.0527 212.775 82.4339 213.227 82.1512C213.892 81.7158 214.343 81.0283 214.55 80.3637C214.581 80.2414 214.619 80.1116 214.634 79.997C214.726 79.5539 214.726 79.1185 214.604 78.7595C214.542 78.5761 214.435 78.4386 214.282 78.3393C214.282 78.3393 214.259 78.324 214.244 78.3164C214.221 78.3011 214.19 78.3087 214.183 78.2935C214.152 78.2935 214.083 78.2935 214.083 78.2935C213.961 78.2782 213.854 78.2935 213.732 78.3546C213.525 78.431 213.341 78.5914 213.181 78.7747C212.974 79.0268 212.867 79.2178 212.737 79.4928C212.661 79.615 212.615 79.7525 212.546 79.8824L212.523 79.9741C212.5 80.0199 212.485 80.0658 212.469 80.1116C212.462 80.1421 212.439 80.1727 212.446 80.2033L211.727 80.2644C211.842 79.8366 212.049 79.3859 212.301 78.9581C212.745 78.2553 213.38 77.6518 214.137 77.5601C214.818 77.4837 215.216 77.9421 215.361 78.4921C215.483 78.9275 215.468 79.4393 215.346 79.9512L215.361 79.9282Z" fill="#37474F"/>
<path d="M219.324 79.5846C219.109 80.6312 218.436 81.7465 217.381 82.4111C216.922 82.709 216.738 82.0903 217.189 81.8076C217.855 81.3722 218.306 80.6847 218.513 80.0124C218.543 79.8902 218.582 79.7603 218.597 79.6458C218.689 79.2027 218.696 78.7673 218.566 78.4082C218.505 78.2249 218.398 78.0874 218.245 77.9881C218.245 77.9881 218.222 77.9728 218.207 77.9651C218.184 77.9499 218.153 77.9575 218.145 77.9422C218.115 77.9422 218.046 77.9422 218.046 77.9422C217.924 77.9269 217.817 77.9422 217.694 78.0033C217.488 78.0797 217.304 78.2402 217.143 78.4235C216.937 78.6756 216.83 78.8666 216.7 79.1416C216.623 79.2638 216.577 79.4013 216.508 79.5312L216.486 79.6228C216.463 79.6687 216.447 79.7145 216.432 79.7603C216.424 79.7909 216.401 79.8215 216.409 79.852L215.69 79.9131C215.805 79.4853 216.011 79.0346 216.264 78.6068C216.707 77.904 217.342 77.3005 218.1 77.2012C218.78 77.1248 219.178 77.5832 219.324 78.1332C219.446 78.5686 219.431 79.0805 219.308 79.5923L219.324 79.5846Z" fill="#37474F"/>
<path d="M223.286 79.2408C223.072 80.2874 222.399 81.4027 221.343 82.0673C220.884 82.3652 220.7 81.7465 221.152 81.4638C221.817 81.0284 222.269 80.3409 222.475 79.6762C222.506 79.554 222.544 79.4242 222.559 79.3096C222.651 78.8665 222.651 78.4311 222.529 78.072C222.467 77.8887 222.36 77.7512 222.207 77.6519C222.207 77.6519 222.184 77.6366 222.169 77.629C222.146 77.6137 222.116 77.6213 222.108 77.606C222.077 77.606 222.008 77.606 222.008 77.606C221.886 77.5908 221.779 77.606 221.657 77.6671C221.45 77.7435 221.274 77.904 221.106 78.0873C220.899 78.3394 220.792 78.5304 220.662 78.8054C220.586 78.9276 220.54 79.0651 220.471 79.195L220.448 79.2867C220.425 79.3325 220.41 79.3783 220.394 79.4242C220.387 79.4547 220.364 79.4853 220.371 79.5158L219.652 79.5769C219.767 79.1491 219.974 78.6984 220.226 78.2706C220.67 77.5678 221.305 76.9644 222.062 76.865C222.743 76.7887 223.141 77.247 223.286 77.797C223.408 78.2324 223.393 78.7443 223.271 79.2561L223.286 79.2408Z" fill="#37474F"/>
<path d="M227.249 78.9046C227.034 79.9512 226.361 81.0665 225.306 81.7311C224.847 82.029 224.663 81.4103 225.114 81.1276C225.78 80.6922 226.231 80.0047 226.438 79.3324C226.468 79.2178 226.507 79.0803 226.522 78.9657C226.614 78.5227 226.621 78.0872 226.491 77.7282C226.43 77.5449 226.323 77.4074 226.17 77.3081C226.17 77.3081 226.147 77.2928 226.132 77.2851C226.109 77.2699 226.078 77.2775 226.071 77.2622C226.04 77.2622 225.971 77.2622 225.971 77.2622C225.849 77.2469 225.742 77.2622 225.619 77.3233C225.413 77.3997 225.229 77.5601 225.068 77.7435C224.862 77.9956 224.755 78.1866 224.625 78.4616C224.548 78.5838 224.502 78.7213 224.434 78.8512L224.411 78.9428C224.388 78.9887 224.372 79.0345 224.357 79.0803C224.349 79.1109 224.326 79.1414 224.334 79.172L223.615 79.2331C223.73 78.8053 223.936 78.3546 224.189 77.9268C224.632 77.224 225.267 76.6205 226.025 76.5289C226.705 76.4525 227.103 76.9108 227.249 77.4608C227.371 77.8963 227.356 78.4081 227.233 78.9199L227.249 78.9046Z" fill="#37474F"/>
<path d="M227.203 94.8093C229.796 100.332 236.352 107.208 236.864 111.715C237.331 115.779 233.942 117.192 233.942 117.192C233.942 117.192 238.425 119.453 238.218 123.617C238.111 125.755 234.592 127.474 234.592 127.474C234.592 127.474 238.103 129.445 237.698 133.135C237.369 136.076 233.888 137.352 233.888 137.352C233.888 137.352 236.375 140.812 235.082 143.7C232.45 149.559 207.015 149.429 203.137 140.048C201.332 135.679 207.543 136.045 207.543 136.045C207.543 136.045 198.738 133.356 198.631 128.124C198.524 122.883 206.564 123.853 206.564 123.853C206.564 123.853 198.057 121.18 198.494 115.733C198.952 110.065 206.824 112.41 206.824 112.41C206.824 112.41 201.186 108.552 202.479 104.465C204.613 97.7122 215.277 106.276 220.876 104.977L224.013 95.7871L227.195 94.8093H227.203Z" fill="#D3756A"/>
<path d="M232.259 102.838C230.263 97.3989 237.04 90.7223 235.877 85.2451C234.309 77.8351 225.925 85.0464 224.013 95.7871L223.998 104.389L232.259 102.838Z" fill="#D3756A"/>
<path d="M233.376 137.634C233.46 137.634 233.483 137.749 233.399 137.764C225.022 139.758 215.208 139.383 207.199 136.068C206.939 135.961 207 135.488 207.313 135.549C216.218 137.39 224.265 138.314 233.376 137.634Z" fill="#010101"/>
<path d="M234.722 127.528C234.822 127.52 234.837 127.68 234.73 127.711C226.086 129.72 215.04 128.994 206.266 124.082C205.967 123.914 205.86 123.464 206.227 123.632C212.309 126.45 226.522 128.185 234.722 127.528Z" fill="#010101"/>
<path d="M206.311 111.852C214.91 116.229 224.043 117.413 233.598 117.284C233.72 117.284 233.713 117.459 233.605 117.49C228.947 118.827 222.842 118.277 218.138 117.444C213.625 116.649 209.716 115.022 206.158 112.15C206.021 112.035 206.128 111.753 206.311 111.852Z" fill="#010101"/>
<path d="M422.169 254.124C420.999 257.286 363.473 328.69 359.557 330.026C358.073 330.538 347.172 322.784 334.267 313.037C331.483 310.929 328.614 308.744 325.715 306.498C306.889 291.968 287.245 276.117 287.245 276.117L325.585 228.242L362.999 259.937L371.215 266.889C371.215 266.889 405.478 249.388 409.938 248.379C414.382 247.386 423.34 250.954 422.169 254.116V254.124Z" fill="#D3756A"/>
<path d="M422.169 254.124C420.999 257.286 363.474 328.689 359.557 330.026C357.752 330.645 342.032 319.064 325.715 306.498L362.999 259.945L371.215 266.896C371.215 266.896 405.478 249.395 409.938 248.387C414.382 247.394 423.34 250.961 422.169 254.124Z" fill="white"/>
<path d="M422.169 254.124C420.999 257.286 363.473 328.689 359.557 330.026C358.073 330.538 347.172 322.784 334.267 313.037L371.215 266.896C371.215 266.896 405.478 249.395 409.938 248.387C414.382 247.394 423.34 250.961 422.169 254.124Z" fill="#BCB4FF"/>
<path d="M418.482 252.848C408.545 264.582 369.578 312.838 360.651 325.191C360.574 325.29 360.651 325.343 360.727 325.252C370.833 313.839 409.402 265.269 418.681 253.008C418.88 252.749 418.696 252.604 418.482 252.848Z" fill="#010101"/>
<path d="M403.665 250.915C401.263 253.658 400.375 257.516 400.827 260.426C401.255 263.222 402.517 266.331 405.072 268.241C405.149 268.294 405.256 268.165 405.187 268.096C401.049 263.642 400.36 256.072 403.818 251.038C403.887 250.938 403.749 250.824 403.665 250.915Z" fill="#010101"/>
<path d="M376.149 263.207C372.225 267.943 369.44 274.856 370.97 280.991C371.031 281.227 371.368 281.143 371.406 280.937C372.661 274.811 374.313 269.356 376.807 263.596C376.983 263.191 376.432 262.863 376.149 263.207Z" fill="#010101"/>
<path d="M380.57 260.671C376.646 265.407 373.862 272.32 375.392 278.455C375.453 278.691 375.789 278.607 375.828 278.401C377.082 272.274 378.735 266.82 381.228 261.06C381.404 260.655 380.854 260.327 380.57 260.671Z" fill="#010101"/>
<path d="M384.992 258.134C381.068 262.871 378.283 269.784 379.813 275.911C379.874 276.147 380.211 276.063 380.249 275.857C381.504 269.731 383.156 264.276 385.65 258.516C385.826 258.111 385.275 257.783 384.992 258.127V258.134Z" fill="#010101"/>
<path d="M389.421 255.598C385.497 260.334 382.712 267.248 384.242 273.374C384.303 273.611 384.64 273.527 384.678 273.321C385.933 267.194 387.585 261.74 390.079 255.98C390.255 255.575 389.704 255.247 389.421 255.591V255.598Z" fill="#010101"/>
<path d="M351.724 312.999C347.409 318.384 355.786 325.092 360.108 319.691C364.422 314.305 356.046 307.598 351.724 312.999Z" fill="white"/>
<path d="M367.52 247.753C363.55 248.563 363.06 253.192 363.948 256.37C365.386 261.511 368.79 266.988 372.707 270.579C372.806 270.67 372.906 270.624 372.967 270.54C373.395 270.716 374.007 270.54 374.045 269.99C374.428 264.681 375.499 259.051 374.244 253.788C373.51 250.709 371.276 246.996 367.52 247.76V247.753ZM372.982 261.816C372.86 264.429 372.6 267.026 372.577 269.647C370.878 266.874 369.065 264.185 367.643 261.236C366.962 259.83 366.296 258.371 365.814 256.889C365.065 254.575 364.843 246.653 370.45 250.365C373.54 252.413 373.135 258.7 372.982 261.816Z" fill="#010101"/>
<path d="M364.896 283.909C368.897 280.25 371.177 274.994 373.839 270.388C374.114 269.906 373.701 269.425 373.25 269.326C373.25 269.226 373.188 269.127 373.058 269.15C367.795 269.922 361.898 272.549 357.82 276.002C355.304 278.134 353.108 282.244 355.938 285.139C358.616 287.874 362.555 286.048 364.896 283.917V283.909ZM359.832 284.604C353.108 284.543 357.744 278.103 359.664 276.606C360.895 275.643 362.272 274.811 363.619 274.031C366.449 272.389 369.463 271.182 372.431 269.838C370.985 272.022 369.738 274.314 368.369 276.545C366.74 279.211 363.542 284.642 359.84 284.604H359.832Z" fill="#010101"/>
<path d="M360.995 252.718L321.102 306.475L186.476 213.186L173.494 204.187C173.494 204.187 169.822 206.654 164.284 209.71C156.596 213.95 145.336 219.328 135.368 220.787C118.654 223.254 93.4483 222.994 79.3652 204.179C67.5006 188.343 71.2413 167.672 71.2413 167.672L89.5928 159.803C89.5928 159.803 133.02 123.67 161.148 122.585C173.097 122.112 190.492 131.157 206.61 140.599C222.705 150.033 360.995 252.711 360.995 252.711V252.718Z" fill="#FFFEEC"/>
<path d="M173.487 204.187C173.487 204.187 169.815 206.654 164.276 209.71C154.492 198.014 133.785 176.778 133.158 176.021L173.487 204.187Z" fill="#010101"/>
<path d="M105.504 147.718C102.911 149.521 100.394 151.431 97.8392 153.28C95.3225 155.098 92.7216 156.801 90.3272 158.787C87.8947 160.804 85.5845 162.958 83.2896 165.135C82.1804 166.182 81.0865 167.244 80.0155 168.329C78.9522 169.406 77.7665 170.483 76.8868 171.72C76.8026 171.835 76.9709 171.973 77.078 171.904C78.3173 171.109 79.4341 170.025 80.5586 169.077C81.7749 168.054 82.9759 167.022 84.1846 165.991C86.5177 164.013 88.8968 162.087 91.2299 160.094C93.5401 158.123 95.6897 155.961 97.9769 153.959C100.432 151.82 103.018 149.827 105.565 147.802C105.611 147.764 105.565 147.68 105.512 147.718H105.504Z" fill="#010101"/>
<path d="M351.632 250.793C349.039 253.582 346.644 256.591 344.227 259.532C341.802 262.489 339.392 265.46 337.006 268.44C332.217 274.406 327.398 280.349 322.693 286.384C320.108 289.699 317.56 293.038 315.158 296.491C315.051 296.643 315.296 296.819 315.418 296.682C320.567 291.029 325.271 285.001 330.045 279.035C334.826 273.061 339.591 267.072 344.288 261.022C346.858 257.714 349.505 254.422 351.861 250.961C351.953 250.824 351.739 250.671 351.624 250.786L351.632 250.793Z" fill="#010101"/>
<path d="M249.425 256.66C242.724 251.389 227.493 241.099 220.555 236.149C213.647 231.229 206.74 226.295 199.725 221.528C197.713 220.16 195.678 218.816 193.651 217.471C191.624 216.127 189.52 214.889 187.531 213.491C187.417 213.407 187.31 213.598 187.424 213.682C189.245 214.989 190.966 216.448 192.756 217.8C194.462 219.091 196.16 220.397 197.881 221.673C201.247 224.163 204.644 226.6 208.033 229.045C214.91 234.01 221.84 238.914 228.84 243.704C232.817 246.424 245.057 254.475 249.111 257.065C249.356 257.218 249.639 256.836 249.41 256.652L249.425 256.66Z" fill="#010101"/>
<path d="M291.674 201.116C285.485 195.99 271.372 186.143 264.885 181.407C258.321 176.617 251.796 171.782 245.202 167.022C238.669 162.301 232.129 157.588 225.596 152.867C219.262 148.291 212.959 143.647 206.265 139.598C202.601 137.383 198.845 135.328 194.99 133.479C191.241 131.684 187.34 129.85 183.332 128.727C183.209 128.697 183.148 128.873 183.255 128.926C186.552 130.767 190.017 132.31 193.353 134.09C196.65 135.847 199.901 137.688 203.098 139.628C209.738 143.654 216.011 148.215 222.314 152.745C235.403 162.141 248.461 171.583 261.641 180.849C269.016 186.036 283.718 196.754 291.375 201.521C291.613 201.666 291.888 201.299 291.666 201.116H291.674Z" fill="#010101"/>
</g>
<defs>
<clipPath id="clip0_2230_78">
<rect width="545" height="336" fill="white"/>
</clipPath>
</defs>
</svg>
